<?xml version="1.0" encoding="UTF-8" standalone="no"?>
<svg
   viewBox="0 0 192 192"
   version="1.1"
   id="svg9"
   sodipodi:docname="gitlab-icon-light.svg"
   width="192"
   height="192"
   inkscape:version="1.2.2 (b0a8486541, 2022-12-01)"
   xmlns:inkscape="http://www.inkscape.org/namespaces/inkscape"
   xmlns:sodipodi="http://sodipodi.sourceforge.net/DTD/sodipodi-0.dtd"
   xmlns="http://www.w3.org/2000/svg"
   xmlns:svg="http://www.w3.org/2000/svg">
  <sodipodi:namedview
     id="namedview11"
     pagecolor="#ffffff"
     bordercolor="#000000"
     borderopacity="0.25"
     inkscape:showpageshadow="2"
     inkscape:pageopacity="0.0"
     inkscape:pagecheckerboard="0"
     inkscape:deskcolor="#d1d1d1"
     showgrid="false"
     inkscape:zoom="1.631928"
     inkscape:cx="-26.655587"
     inkscape:cy="214.77663"
     inkscape:window-width="1852"
     inkscape:window-height="1052"
     inkscape:window-x="0"
     inkscape:window-y="0"
     inkscape:window-maximized="1"
     inkscape:current-layer="svg9" />
  <defs
     id="defs4">
    <style
       id="style2">.cls-1{fill:#fff;}</style>
  </defs>
  <g
     id="LOGO"
     transform="translate(-93.973245,-93.517263)">
    <path
       class="cls-1"
       d="m 282.83,170.73 -0.27,-0.69 -26.14,-68.22 a 6.81,6.81 0 0 0 -2.69,-3.24 7,7 0 0 0 -8,0.43 7,7 0 0 0 -2.32,3.52 l -17.65,54 h -71.47 l -17.65,-54 a 6.86,6.86 0 0 0 -2.32,-3.53 7,7 0 0 0 -8,-0.43 6.87,6.87 0 0 0 -2.69,3.24 L 97.44,170 l -0.26,0.69 a 48.54,48.54 0 0 0 16.1,56.1 l 0.09,0.07 0.24,0.17 39.82,29.82 19.7,14.91 12,9.06 a 8.07,8.07 0 0 0 9.76,0 l 12,-9.06 19.7,-14.91 40.06,-30 0.1,-0.08 a 48.56,48.56 0 0 0 16.08,-56.04 z"
       id="path6" />
  </g>
</svg>
